<svg width="179" height="45" viewBox="0 0 179 45" fill="none" xmlns="http://www.w3.org/2000/svg">
<path d="M60.7139 38.5623V44.3261H59.2675L56.4464 40.4625V44.3261H55V38.5623H56.4464L59.2724 42.4301V38.5623H60.7139ZM67.6402 41.3095V41.5826C67.6402 42.0207 67.5681 42.4141 67.4232 42.7624C67.2789 43.1112 67.0744 43.4079 66.8107 43.6532C66.5471 43.8962 66.2324 44.0822 65.8662 44.2112C65.5027 44.3406 65.0996 44.4054 64.6558 44.4054C64.2153 44.4054 63.8117 44.3406 63.4455 44.2112C63.082 44.0822 62.7673 43.8962 62.5004 43.6532C62.2335 43.4079 62.0262 43.1112 61.8787 42.7624C61.7338 42.4141 61.6611 42.0207 61.6611 41.5826V41.3095C61.6611 40.8687 61.7338 40.4757 61.8787 40.1299C62.023 39.7815 62.227 39.4846 62.4906 39.2392C62.7575 38.9937 63.0727 38.8064 63.4357 38.6769C63.8019 38.5478 64.2055 38.4832 64.6461 38.4832C65.0893 38.4832 65.4929 38.5478 65.8564 38.6769C66.2226 38.8064 66.5378 38.9937 66.8015 39.2392C67.0684 39.4846 67.274 39.7815 67.4189 40.1299C67.5665 40.4757 67.6402 40.8687 67.6402 41.3095ZM66.1792 41.5826V41.3018C66.1792 40.9959 66.1456 40.7265 66.0783 40.494C66.0105 40.2618 65.9107 40.0667 65.7788 39.9082C65.6476 39.7499 65.4864 39.6311 65.2971 39.552C65.1072 39.4701 64.8902 39.4293 64.6461 39.4293C64.4019 39.4293 64.1849 39.4701 63.995 39.552C63.8084 39.6311 63.6494 39.7499 63.5176 39.9082C63.389 40.0667 63.2908 40.2618 63.2236 40.494C63.1563 40.7265 63.1221 40.9959 63.1221 41.3018V41.5826C63.1221 41.8862 63.1563 42.1556 63.2236 42.3904C63.2908 42.6225 63.3907 42.8194 63.5225 42.9803C63.6543 43.1385 63.8149 43.2584 64.0048 43.3405C64.1941 43.4225 64.4112 43.4631 64.6558 43.4631C64.9 43.4631 65.117 43.4225 65.3063 43.3405C65.4962 43.2584 65.6557 43.1385 65.7837 42.9803C65.9129 42.8194 66.0105 42.6225 66.0783 42.3904C66.1456 42.1556 66.1792 41.8862 66.1792 41.5826ZM74.297 38.5623V44.3261H72.8501L70.0301 40.4625V44.3261H68.5832V38.5623H70.0301L72.855 42.4301V38.5623H74.297ZM78.1088 41.4048V42.2992H75.3842V41.4048H78.1088ZM84.8182 41.3136V43.598C84.7091 43.7061 84.5404 43.8237 84.312 43.9504C84.0836 44.074 83.7895 44.1811 83.4293 44.2709C83.0696 44.3607 82.634 44.4054 82.1229 44.4054C81.6699 44.4054 81.2565 44.3447 80.8838 44.2235C80.5111 44.099 80.1894 43.9185 79.9197 43.681C79.6523 43.4435 79.4466 43.1531 79.3023 42.8103C79.1575 42.4643 79.0853 42.0699 79.0853 41.6264V41.2662C79.0853 40.8227 79.1542 40.4283 79.2926 40.0824C79.4336 39.7368 79.6349 39.4452 79.8953 39.2076C80.1552 38.9699 80.4655 38.7893 80.8257 38.6652C81.186 38.541 81.5858 38.479 82.0263 38.479C82.6372 38.479 83.1385 38.5609 83.5308 38.7244C83.923 38.8855 84.2219 39.11 84.4275 39.3977C84.6364 39.6826 84.7655 40.0099 84.8133 40.3791H83.4103C83.3751 40.1841 83.3078 40.0138 83.208 39.8687C83.1081 39.7234 82.9649 39.6102 82.7788 39.5282C82.5954 39.4463 82.3578 39.4055 82.0649 39.4055C81.824 39.4055 81.6086 39.4463 81.4187 39.5282C81.2326 39.6073 81.0748 39.7248 80.9467 39.8805C80.8176 40.0362 80.7199 40.2288 80.6521 40.4589C80.5849 40.6882 80.5512 40.9544 80.5512 41.258V41.6264C80.5512 41.9272 80.5859 42.1935 80.657 42.426C80.7281 42.6557 80.8322 42.8495 80.9706 43.0081C81.1122 43.1636 81.2858 43.2812 81.4914 43.3605C81.697 43.4394 81.9363 43.479 82.2097 43.479C82.4381 43.479 82.6275 43.4631 82.7788 43.4316C82.9329 43.4002 83.0566 43.3619 83.1499 43.3167C83.2465 43.2693 83.3203 43.2247 83.3718 43.1823V42.1606H82.0502V41.3136H84.8182ZM91.6534 41.3095V41.5826C91.6534 42.0207 91.5807 42.4141 91.4359 42.7624C91.2915 43.1112 91.0876 43.4079 90.8239 43.6532C90.5602 43.8962 90.2456 44.0822 89.8788 44.2112C89.5159 44.3406 89.1122 44.4054 88.669 44.4054C88.2279 44.4054 87.8248 44.3406 87.4581 44.2112C87.0951 44.0822 86.7799 43.8962 86.513 43.6532C86.2461 43.4079 86.0394 43.1112 85.8913 42.7624C85.7464 42.4141 85.6743 42.0207 85.6743 41.5826V41.3095C85.6743 40.8687 85.7464 40.4757 85.8913 40.1299C86.0356 39.7815 86.2401 39.4846 86.5038 39.2392C86.7702 38.9937 87.0854 38.8064 87.4489 38.6769C87.8151 38.5478 88.2187 38.4832 88.6587 38.4832C89.1025 38.4832 89.5061 38.5478 89.8691 38.6769C90.2358 38.8064 90.551 38.9937 90.8141 39.2392C91.0811 39.4846 91.2867 39.7815 91.4315 40.1299C91.5796 40.4757 91.6534 40.8687 91.6534 41.3095ZM90.1924 41.5826V41.3018C90.1924 40.9959 90.1588 40.7265 90.0909 40.494C90.0237 40.2618 89.9238 40.0667 89.792 39.9082C89.6602 39.7499 89.4996 39.6311 89.3097 39.552C89.1204 39.4701 88.9034 39.4293 88.6587 39.4293C88.4145 39.4293 88.1975 39.4701 88.0082 39.552C87.8216 39.6311 87.6626 39.7499 87.5308 39.9082C87.4022 40.0667 87.304 40.2618 87.2367 40.494C87.1689 40.7265 87.1353 40.9959 87.1353 41.3018V41.5826C87.1353 41.8862 87.1689 42.1556 87.2367 42.3904C87.304 42.6225 87.4038 42.8194 87.5357 42.9803C87.6675 43.1385 87.8281 43.2584 88.0174 43.3405C88.2073 43.4225 88.4243 43.4631 88.669 43.4631C88.9131 43.4631 89.1296 43.4225 89.3195 43.3405C89.5094 43.2584 89.6683 43.1385 89.7969 42.9803C89.9255 42.8194 90.0237 42.6225 90.0909 42.3904C90.1588 42.1556 90.1924 41.8862 90.1924 41.5826ZM95.0214 43.1225L96.6755 38.5623H98.2858L95.8411 44.3261H94.7805L95.0214 43.1225ZM93.4975 38.5623L95.1467 43.1225L95.3974 44.3261H94.327L91.897 38.5623H93.4975ZM103.554 43.4002V44.3261H99.8168V43.4002H103.554ZM100.289 38.5623V44.3261H98.8429V38.5623H100.289ZM103.066 40.9097V41.8124H99.8168V40.9097H103.066ZM103.549 38.5623V39.4925H99.8168V38.5623H103.549ZM104.299 38.5623H106.917C107.454 38.5623 107.915 38.6283 108.301 38.7602C108.69 38.8922 108.989 39.0874 109.198 39.3462C109.406 39.6048 109.511 39.9227 109.511 40.3001C109.511 40.6089 109.447 40.8742 109.318 41.0957C109.193 41.315 109.014 41.4983 108.783 41.6464C108.555 41.7914 108.286 41.9072 107.978 41.9947L107.52 42.1926H105.244L105.234 41.2662H106.927C107.18 41.2662 107.391 41.2293 107.559 41.1554C107.726 41.0811 107.851 40.9786 107.934 40.8464C108.021 40.7146 108.065 40.5614 108.065 40.3873C108.065 40.2026 108.023 40.0429 107.939 39.9082C107.855 39.7737 107.728 39.6708 107.559 39.5995C107.388 39.5282 107.174 39.4925 106.917 39.4925H105.745V44.3261H104.299V38.5623ZM108.224 44.3261L106.623 41.7572L108.151 41.749L109.772 44.2709V44.3261H108.224ZM116.24 38.5623V44.3261H114.793L111.973 40.4625V44.3261H110.526V38.5623H111.973L114.799 42.4301V38.5623H116.24ZM118.06 38.5623H119.285L121.089 42.7943L122.892 38.5623H124.116L121.58 44.3261H120.596L118.06 38.5623ZM117.399 38.5623H118.62L118.841 42.6872V44.3261H117.399V38.5623ZM123.557 38.5623H124.782V44.3261H123.335V42.6872L123.557 38.5623ZM130.662 43.4002V44.3261H126.926V43.4002H130.662ZM127.398 38.5623V44.3261H125.951V38.5623H127.398ZM130.175 40.9097V41.8124H126.926V40.9097H130.175ZM130.658 38.5623V39.4925H126.926V38.5623H130.658ZM137.121 38.5623V44.3261H135.675L132.854 40.4625V44.3261H131.407V38.5623H132.854L135.679 42.4301V38.5623H137.121ZM141.275 38.5623V44.3261H139.833V38.5623H141.275ZM143.435 38.5623V39.4925H137.707V38.5623H143.435ZM150.972 43.4002V44.3261H147.235V43.4002H150.972ZM147.707 38.5623V44.3261H146.261V38.5623H147.707ZM150.485 40.9097V41.8124H147.235V40.9097H150.485ZM150.967 38.5623V39.4925H147.235V38.5623H150.967ZM157.431 38.5623V44.3261H155.984L153.164 40.4625V44.3261H151.717V38.5623H153.164L155.989 42.4301V38.5623H157.431ZM161.585 38.5623V44.3261H160.143V38.5623H161.585ZM163.745 38.5623V39.4925H158.016V38.5623H163.745ZM166.009 38.5623V44.3261H164.567V38.5623H166.009ZM170.259 38.5623V44.3261H168.818V38.5623H170.259ZM172.419 38.5623V39.4925H166.691V38.5623H172.419ZM174.187 38.5623L175.653 41.191L177.119 38.5623H178.695L176.386 42.2281V44.3261H174.92V42.2281L172.605 38.5623H174.187Z" fill="#17093A"/>
<path d="M63.2593 11.6502H58.3064L57.0683 15.2037H55.2202L59.8588 2.04241H61.7069L66.3455 15.2037H64.4974L63.2593 11.6502ZM62.7048 10.0332L60.7827 4.54305L58.861 10.0332H62.7048ZM67.9638 7.3069H66.3928L66.6145 5.99079H67.9638V3.80979C67.9638 2.96998 68.1793 2.3119 68.6106 1.8356C69.0539 1.34674 69.6887 1.10229 70.5141 1.10229C71.0562 1.10229 71.5368 1.18376 71.9553 1.34674L71.6968 2.77568C71.4011 2.66286 71.093 2.60646 70.7726 2.60646C70.0088 2.60646 69.6271 3.04517 69.6271 3.92258V5.99079H72.0665V7.3069H69.6271V15.2037H67.9638V7.3069ZM74.0816 7.3069H72.511L72.7326 5.99079H74.0816V3.80979C74.0816 2.96998 74.2971 2.3119 74.7284 1.8356C75.1721 1.34674 75.8064 1.10229 76.6319 1.10229C77.174 1.10229 77.6545 1.18376 78.0734 1.34674L77.8146 2.77568C77.5189 2.66286 77.2108 2.60646 76.8907 2.60646C76.1269 2.60646 75.7448 3.04517 75.7448 3.92258V5.99079H78.1843V7.3069H75.7448V15.2037H74.0816V7.3069ZM83.3457 15.3918C82.4218 15.3918 81.6208 15.1849 80.9434 14.7713C80.2656 14.3451 79.7483 13.7684 79.391 13.0415C79.0337 12.3145 78.8551 11.4998 78.8551 10.5972C78.8551 9.69476 79.0337 8.88002 79.391 8.15299C79.7483 7.42601 80.2656 6.85568 80.9434 6.44201C81.6208 6.01587 82.4218 5.80277 83.3457 5.80277C84.2575 5.80277 85.0519 6.01587 85.7297 6.44201C86.4195 6.85568 86.943 7.42601 87.3003 8.15299C87.6576 8.88002 87.8366 9.69476 87.8366 10.5972C87.8366 11.4998 87.6576 12.3145 87.3003 13.0415C86.943 13.7684 86.4195 14.3451 85.7297 14.7713C85.0519 15.1849 84.2575 15.3918 83.3457 15.3918ZM83.3457 13.8876C84.2327 13.8876 84.9163 13.5993 85.3968 13.0227C85.8897 12.446 86.1362 11.6376 86.1362 10.5972C86.1362 9.55686 85.8897 8.7484 85.3968 8.17175C84.9163 7.59526 84.2327 7.3069 83.3457 7.3069C82.4586 7.3069 81.7688 7.59526 81.2759 8.17175C80.7954 8.7484 80.5551 9.55686 80.5551 10.5972C80.5551 11.6376 80.7954 12.446 81.2759 13.0227C81.7688 13.5993 82.4586 13.8876 83.3457 13.8876ZM89.5514 5.99079H90.919L91.122 7.51372C91.5905 6.92463 92.0339 6.49217 92.4528 6.2164C92.8841 5.94064 93.3336 5.80277 93.8017 5.80277C93.9498 5.80277 94.0916 5.82157 94.2268 5.85917L94.0606 7.72061C93.9005 7.68297 93.7157 7.6641 93.506 7.6641C93.0503 7.6641 92.619 7.77068 92.2125 7.98374C91.806 8.18435 91.5103 8.42244 91.3255 8.69828V15.2037H89.5514V5.99079ZM103.185 1.10229V15.2037H101.706L101.522 14.0756C101.213 14.5017 100.813 14.8277 100.32 15.0533C99.8273 15.2788 99.3037 15.3918 98.7492 15.3918C97.9854 15.3918 97.2894 15.1787 96.6612 14.7524C96.0327 14.3263 95.5339 13.7497 95.1642 13.0227C94.8069 12.2957 94.6283 11.4935 94.6283 10.6161C94.6283 9.76371 94.7945 8.96773 95.127 8.22826C95.4723 7.48868 95.9587 6.89955 96.5872 6.46085C97.2154 6.02214 97.9362 5.80277 98.7492 5.80277C99.2913 5.80277 99.8029 5.90304 100.283 6.10361C100.764 6.30415 101.177 6.61127 101.522 7.0249V1.10229H103.185ZM99.0453 13.8876C99.4886 13.8876 99.9137 13.7747 100.32 13.5491C100.727 13.311 101.06 12.9475 101.318 12.4586C101.577 11.9698 101.706 11.3556 101.706 10.6161C101.706 9.92669 101.577 9.33121 101.318 8.82983C101.06 8.32845 100.721 7.95242 100.302 7.70173C99.8951 7.43853 99.4762 7.3069 99.0453 7.3069C98.2071 7.3069 97.5421 7.6203 97.0491 8.24702C96.5686 8.86115 96.3284 9.65084 96.3284 10.6161C96.3284 11.5436 96.5748 12.3207 97.0677 12.9475C97.5603 13.5743 98.2195 13.8876 99.0453 13.8876ZM107.522 15.3918C106.684 15.3918 106.007 15.1411 105.489 14.6397C104.984 14.1383 104.731 13.499 104.731 12.7219C104.731 11.5562 105.273 10.7225 106.357 10.2212C107.442 9.7198 108.704 9.45667 110.146 9.43151C110.146 8.60429 109.986 8.04641 109.666 7.75813C109.357 7.45732 108.858 7.3069 108.168 7.3069C107.787 7.3069 107.404 7.36957 107.022 7.49496C106.641 7.6077 106.228 7.82087 105.785 8.13423L105.544 6.76165C105.914 6.47337 106.37 6.24148 106.912 6.06598C107.454 5.89052 108.021 5.80277 108.612 5.80277C109.388 5.80277 110.004 5.94064 110.46 6.2164C110.928 6.49217 111.268 6.94967 111.477 7.58895C111.698 8.22826 111.809 9.10567 111.809 10.2212V12.1013C111.809 12.6028 111.827 12.9851 111.864 13.2483C111.914 13.499 112.012 13.6933 112.16 13.8311C112.308 13.9691 112.536 14.038 112.844 14.038H113.01L112.752 15.3918H112.622C112.105 15.3918 111.698 15.3415 111.402 15.2413C111.107 15.1411 110.879 14.9968 110.719 14.8088C110.571 14.6208 110.429 14.3639 110.293 14.038C109.53 14.9405 108.606 15.3918 107.522 15.3918ZM107.836 14.038C108.279 14.038 108.704 13.9251 109.111 13.6996C109.53 13.474 109.875 13.1731 110.146 12.797V10.5972C108.815 10.6474 107.861 10.8291 107.282 11.1425C106.715 11.4433 106.432 11.9385 106.432 12.6279C106.432 13.1042 106.555 13.4614 106.801 13.6996C107.06 13.9251 107.404 14.038 107.836 14.038ZM118.748 5.80277C119.561 5.80277 120.276 6.02214 120.891 6.46085C121.52 6.89955 122.001 7.48868 122.333 8.22826C122.666 8.95517 122.832 9.74487 122.832 10.5972C122.832 11.4746 122.647 12.2832 122.277 13.0227C121.921 13.7497 121.427 14.3263 120.799 14.7524C120.183 15.1787 119.5 15.3918 118.748 15.3918C118.193 15.3918 117.657 15.2788 117.141 15.0533C116.622 14.8151 116.222 14.4893 115.939 14.0756L115.754 15.2037H114.276V1.10229H115.939V7.06249C116.271 6.67394 116.684 6.36682 117.177 6.14121C117.682 5.9156 118.206 5.80277 118.748 5.80277ZM118.545 13.8876C119.321 13.8876 119.943 13.5743 120.412 12.9475C120.891 12.3082 121.132 11.5248 121.132 10.5972C121.132 9.64468 120.891 8.86115 120.412 8.24702C119.943 7.6203 119.321 7.3069 118.545 7.3069C117.781 7.3069 117.141 7.59526 116.622 8.17175C116.105 8.7358 115.846 9.54438 115.846 10.5972C115.846 11.6878 116.099 12.5087 116.604 13.0603C117.121 13.6118 117.768 13.8876 118.545 13.8876ZM126.874 15.3918C126.06 15.3918 125.463 15.1787 125.081 14.7524C124.711 14.3263 124.527 13.7998 124.527 13.1731V1.10229H126.189V12.1954C126.189 12.7469 126.22 13.148 126.282 13.3987C126.356 13.6494 126.492 13.8186 126.689 13.9064C126.886 13.9941 127.206 14.038 127.649 14.038L127.409 15.3918H126.874ZM133.166 15.3918C132.131 15.3918 131.243 15.1787 130.504 14.7524C129.777 14.3137 129.223 13.7246 128.84 12.9851C128.459 12.2456 128.268 11.4245 128.268 10.5221C128.268 9.65712 128.44 8.86746 128.785 8.15299C129.142 7.42601 129.654 6.85568 130.319 6.44201C130.996 6.01587 131.791 5.80277 132.703 5.80277C133.861 5.80277 134.797 6.14749 135.512 6.83688C136.239 7.52627 136.602 8.47895 136.602 9.69476C136.602 10.0081 136.578 10.3089 136.529 10.5972H129.968C130.079 11.788 130.436 12.6342 131.04 13.1356C131.644 13.6369 132.42 13.8876 133.368 13.8876C134.317 13.8876 135.185 13.7058 135.974 13.3423L136.195 14.6773C135.149 15.1535 134.138 15.3918 133.166 15.3918ZM134.884 9.43151C134.884 8.76716 134.699 8.24702 134.33 7.87099C133.96 7.49496 133.405 7.3069 132.666 7.3069C131.951 7.3069 131.39 7.48868 130.985 7.85223C130.578 8.20311 130.288 8.72964 130.115 9.43151H134.884Z" fill="#17093A"/>
<path d="M63.258 11.6499L63.403 11.5975L63.3666 11.4932H63.258V11.6499ZM58.3052 11.6499V11.4932H58.1963L58.1602 11.5975L58.3052 11.6499ZM57.067 15.2034V15.3601H57.1759L57.212 15.2557L57.067 15.2034ZM55.2189 15.2034L55.074 15.1505L55 15.3601H55.2189V15.2034ZM59.8576 2.04209V1.88543H59.7491L59.7126 1.98923L59.8576 2.04209ZM61.7056 2.04209L61.8506 1.98923L61.8142 1.88543H61.7056V2.04209ZM66.3443 15.2034V15.3601H66.5628L66.4892 15.1505L66.3443 15.2034ZM64.4962 15.2034L64.3509 15.2557L64.3873 15.3601H64.4962V15.2034ZM62.7035 10.0329V10.1895H62.9217L62.8484 9.98032L62.7035 10.0329ZM60.7814 4.54273L60.9267 4.49018L60.7814 4.07574L60.6365 4.49018L60.7814 4.54273ZM58.8597 10.0329L58.7148 9.98032L58.6411 10.1895H58.8597V10.0329ZM63.258 11.4932H58.3052V11.8065H63.258V11.4932ZM58.1602 11.5975L56.9217 15.1511L57.212 15.2557L58.4505 11.7022L58.1602 11.5975ZM57.067 15.0467H55.2189V15.3601H57.067V15.0467ZM55.3639 15.2564L60.0025 2.09496L59.7126 1.98923L55.074 15.1505L55.3639 15.2564ZM59.8576 2.19875H61.7056V1.88543H59.8576V2.19875ZM61.5607 2.09496L66.1989 15.2564L66.4892 15.1505L61.8506 1.98923L61.5607 2.09496ZM66.3443 15.0467H64.4962V15.3601H66.3443V15.0467ZM64.6411 15.1511L63.403 11.5975L63.1127 11.7022L64.3509 15.2557L64.6411 15.1511ZM62.8484 9.98032L60.9267 4.49018L60.6365 4.59529L62.5586 10.0854L62.8484 9.98032ZM60.6365 4.49018L58.7148 9.98032L59.0046 10.0854L60.9267 4.59529L60.6365 4.49018ZM58.8597 10.1895H62.7035V9.87617H58.8597V10.1895ZM67.9625 7.30662H68.1164V7.14992H67.9625V7.30662ZM66.3915 7.30662L66.2396 7.28015L66.209 7.46328H66.3915V7.30662ZM66.6132 5.99047V5.83381H66.4834L66.4613 5.964L66.6132 5.99047ZM67.9625 5.99047V6.14717H68.1164V5.99047H67.9625ZM68.6093 1.83528L68.4958 1.729V1.72912L68.6093 1.83528ZM71.954 1.34642L72.1055 1.37483L72.1288 1.24662L72.009 1.20007L71.954 1.34642ZM71.6955 2.77536L71.6413 2.92206L71.8137 2.98779L71.847 2.80377L71.6955 2.77536ZM69.6258 5.99047H69.4715V6.14717H69.6258V5.99047ZM72.0652 5.99047H72.2191V5.83381H72.0652V5.99047ZM72.0652 7.30662V7.46328H72.2191V7.30662H72.0652ZM69.6258 7.30662V7.14992H69.4715V7.30662H69.6258ZM69.6258 15.2034V15.3601H69.7796V15.2034H69.6258ZM67.9625 15.2034H67.8083V15.3601H67.9625V15.2034ZM67.9625 7.14992H66.3915V7.46328H67.9625V7.14992ZM66.5431 7.33309L66.7651 6.01694L66.4613 5.964L66.2396 7.28015L66.5431 7.33309ZM66.6132 6.14717H67.9625V5.83381H66.6132V6.14717ZM68.1164 5.99047V3.80947H67.8083V5.99047H68.1164ZM68.1164 3.80947C68.1164 2.99694 68.3245 2.38103 68.7225 1.94144L68.4958 1.72912C68.0315 2.24212 67.8083 2.94237 67.8083 3.80947H68.1164ZM68.7225 1.94155C69.1294 1.49281 69.718 1.25867 70.5128 1.25867V0.945312C69.656 0.945312 68.9759 1.19999 68.4958 1.729L68.7225 1.94155ZM70.5128 1.25867C71.0398 1.25867 71.501 1.33793 71.899 1.49277L72.009 1.20007C71.5696 1.02903 71.0697 0.945312 70.5128 0.945312V1.25867ZM71.8025 1.31805L71.544 2.74699L71.847 2.80377L72.1055 1.37483L71.8025 1.31805ZM71.7494 2.62866C71.4363 2.50917 71.11 2.44948 70.7713 2.44948V2.76284C71.0736 2.76284 71.363 2.81594 71.6413 2.92206L71.7494 2.62866ZM70.7713 2.44948C70.3605 2.44948 70.0257 2.56831 69.7967 2.83129C69.5711 3.09066 69.4715 3.46378 69.4715 3.92229H69.7796C69.7796 3.50335 69.8711 3.21844 70.0273 3.03907C70.1803 2.86334 70.4183 2.76284 70.7713 2.76284V2.44948ZM69.4715 3.92229V5.99047H69.7796V3.92229H69.4715ZM69.6258 6.14717H72.0652V5.83381H69.6258V6.14717ZM71.911 5.99047V7.30662H72.2191V5.99047H71.911ZM72.0652 7.14992H69.6258V7.46328H72.0652V7.14992ZM69.4715 7.30662V15.2034H69.7796V7.30662H69.4715ZM69.6258 15.0467H67.9625V15.3601H69.6258V15.0467ZM68.1164 15.2034V7.30662H67.8083V15.2034H68.1164ZM74.0803 7.30662H74.2342V7.14992H74.0803V7.30662ZM72.5097 7.30662L72.3578 7.28015L72.3268 7.46328H72.5097V7.30662ZM72.7314 5.99047V5.83381H72.6015L72.5795 5.964L72.7314 5.99047ZM74.0803 5.99047V6.14717H74.2342V5.99047H74.0803ZM74.7271 1.83528L74.6139 1.729V1.72912L74.7271 1.83528ZM78.0722 1.34642L78.2237 1.37483L78.2469 1.24662L78.1272 1.20007L78.0722 1.34642ZM77.8133 2.77536L77.7594 2.92206L77.9315 2.98779L77.9648 2.80377L77.8133 2.77536ZM75.7436 5.99047H75.5893V6.14717H75.7436V5.99047ZM78.183 5.99047H78.3368V5.83381H78.183V5.99047ZM78.183 7.30662V7.46328H78.3368V7.30662H78.183ZM75.7436 7.30662V7.14992H75.5893V7.30662H75.7436ZM75.7436 15.2034V15.3601H75.8974V15.2034H75.7436ZM74.0803 15.2034H73.9265V15.3601H74.0803V15.2034ZM74.0803 7.14992H72.5097V7.46328H74.0803V7.14992ZM72.6612 7.33309L72.8833 6.01694L72.5795 5.964L72.3578 7.28015L72.6612 7.33309ZM72.7314 6.14717H74.0803V5.83381H72.7314V6.14717ZM74.2342 5.99047V3.80947H73.9265V5.99047H74.2342ZM74.2342 3.80947C74.2342 2.99694 74.4423 2.38103 74.8406 1.94144L74.6139 1.72912C74.1493 2.24212 73.9265 2.94237 73.9265 3.80947H74.2342ZM74.8402 1.94155C75.2471 1.49281 75.8362 1.25867 76.6306 1.25867V0.945312C75.7742 0.945312 75.0941 1.19999 74.6139 1.729L74.8402 1.94155ZM76.6306 1.25867C77.1576 1.25867 77.6192 1.33793 78.0171 1.49277L78.1272 1.20007C77.6874 1.02903 77.1875 0.945312 76.6306 0.945312V1.25867ZM77.9206 1.31805L77.6618 2.74699L77.9648 2.80377L78.2237 1.37483L77.9206 1.31805ZM77.8676 2.62866C77.554 2.50917 77.2278 2.44948 76.8895 2.44948V2.76284C77.1913 2.76284 77.4812 2.81594 77.7594 2.92206L77.8676 2.62866ZM76.8895 2.44948C76.4787 2.44948 76.1439 2.56831 75.9148 2.83129C75.6889 3.09066 75.5893 3.46378 75.5893 3.92229H75.8974C75.8974 3.50335 75.9892 3.21844 76.1454 3.03907C76.2985 2.86334 76.5364 2.76284 76.8895 2.76284V2.44948ZM75.5893 3.92229V5.99047H75.8974V3.92229H75.5893ZM75.7436 6.14717H78.183V5.83381H75.7436V6.14717ZM78.0292 5.99047V7.30662H78.3368V5.99047H78.0292ZM78.183 7.14992H75.7436V7.46328H78.183V7.14992ZM75.5893 7.30662V15.2034H75.8974V7.30662H75.5893ZM75.7436 15.0467H74.0803V15.3601H75.7436V15.0467ZM74.2342 15.2034V7.30662H73.9265V15.2034H74.2342ZM80.9417 14.771L80.8608 14.9042L80.8627 14.9053L80.9417 14.771ZM79.3897 8.15271L79.2518 8.08268L79.3897 8.15271ZM80.9417 6.44173L81.0212 6.57611L81.0227 6.57502L80.9417 6.44173ZM85.7284 6.44173L85.6474 6.57502L85.6501 6.57673L85.7284 6.44173ZM87.299 8.15271L87.437 8.08268L87.299 8.15271ZM87.299 13.0412L87.437 13.1112L87.299 13.0412ZM85.7284 14.771L85.8074 14.9053L85.8082 14.9049L85.7284 14.771ZM85.3955 13.0224L85.2796 12.9196L85.2781 12.9211L85.3955 13.0224ZM85.3955 8.17147L85.2781 8.27282L85.2796 8.2743L85.3955 8.17147ZM81.2746 8.17147L81.1584 8.06872L81.1572 8.0702L81.2746 8.17147ZM81.2746 13.0224L81.1572 13.1237L81.1584 13.1252L81.2746 13.0224ZM83.3444 15.2347C82.4434 15.2347 81.6711 15.0333 81.0212 14.6366L80.8627 14.9053C81.568 15.3359 82.3973 15.5481 83.3444 15.5481V15.2347ZM81.0227 14.6377C80.3698 14.2269 79.8718 13.6722 79.5273 12.9711L79.2518 13.1112C79.6219 13.8642 80.159 14.4627 80.8608 14.9042L81.0227 14.6377ZM79.5273 12.9711C79.1816 12.2682 79.0076 11.4778 79.0076 10.5969H78.6996C78.6996 11.521 78.8829 12.3602 79.2518 13.1112L79.5273 12.9711ZM79.0076 10.5969C79.0076 9.7161 79.1816 8.92567 79.5273 8.22271L79.2518 8.08268C78.8829 8.83366 78.6996 9.67281 78.6996 10.5969H79.0076ZM79.5273 8.22271C79.8714 7.52216 80.369 6.97419 81.0212 6.57607L80.8627 6.30736C80.1597 6.73653 79.6219 7.32929 79.2518 8.08268L79.5273 8.22271ZM81.0227 6.57502C81.6726 6.16643 82.4442 5.95915 83.3444 5.95915V5.64579C82.3965 5.64579 81.5664 5.86466 80.8608 6.30844L81.0227 6.57502ZM83.3444 5.95915C84.2314 5.95915 84.9975 6.16624 85.6474 6.57502L85.8094 6.30844C85.1041 5.86485 84.2802 5.64579 83.3444 5.64579V5.95915ZM85.6501 6.57673C86.3143 6.97508 86.8173 7.52289 87.1614 8.22271L87.437 8.08268C87.0661 7.32852 86.522 6.73567 85.8063 6.30674L85.6501 6.57673ZM87.1614 8.22271C87.5071 8.92567 87.6811 9.7161 87.6811 10.5969H87.9892C87.9892 9.67281 87.8059 8.83366 87.437 8.08268L87.1614 8.22271ZM87.6811 10.5969C87.6811 11.4778 87.5071 12.2682 87.1614 12.9711L87.437 13.1112C87.8059 12.3602 87.9892 11.521 87.9892 10.5969H87.6811ZM87.1614 12.9711C86.8173 13.6715 86.3136 14.226 85.6486 14.637L85.8082 14.9049C86.5228 14.4636 87.0665 13.8649 87.437 13.1112L87.1614 12.9711ZM85.649 14.6366C84.9987 15.0335 84.2326 15.2347 83.3444 15.2347V15.5481C84.2795 15.5481 85.1026 15.3357 85.8074 14.9053L85.649 14.6366ZM83.3444 14.044C84.2671 14.044 84.9975 13.7422 85.5133 13.1237L85.2781 12.9211C84.8324 13.4556 84.1958 13.7306 83.3444 13.7306V14.044ZM85.5118 13.1252C86.0365 12.5112 86.2887 11.6614 86.2887 10.5969H85.9811C85.9811 11.6132 85.7404 12.3804 85.2796 12.9196L85.5118 13.1252ZM86.2887 10.5969C86.2887 9.53254 86.0365 8.68265 85.5118 8.06872L85.2796 8.2743C85.7404 8.81354 85.9811 9.5806 85.9811 10.5969H86.2887ZM85.5133 8.0702C84.9975 7.45162 84.2671 7.14992 83.3444 7.14992V7.46328C84.1958 7.46328 84.8324 7.73819 85.2781 8.27282L85.5133 8.0702ZM83.3444 7.14992C82.4217 7.14992 81.6858 7.45158 81.1584 8.06872L81.3909 8.2743C81.8489 7.73819 82.493 7.46328 83.3444 7.46328V7.14992ZM81.1572 8.0702C80.6453 8.68413 80.4 9.5334 80.4 10.5969H80.7077C80.7077 9.57975 80.9425 8.81203 81.392 8.27282L81.1572 8.0702ZM80.4 10.5969C80.4 11.6605 80.6453 12.5098 81.1572 13.1237L81.392 12.9211C80.9425 12.3818 80.7077 11.6142 80.7077 10.5969H80.4ZM81.1584 13.1252C81.6858 13.7422 82.4217 14.044 83.3444 14.044V13.7306C82.493 13.7306 81.8489 13.4556 81.3909 12.9196L81.1584 13.1252ZM89.5501 5.99047V5.83381H89.3963V5.99047H89.5501ZM90.9177 5.99047L91.0704 5.96938L91.0521 5.83381H90.9177V5.99047ZM91.1207 7.5134L90.9684 7.53452L91.0165 7.89423L91.2409 7.61188L91.1207 7.5134ZM92.4515 6.21612L92.3697 6.08345L92.3678 6.08457L92.4515 6.21612ZM94.2255 5.85889L94.379 5.87303L94.3906 5.74226L94.2662 5.70769L94.2255 5.85889ZM94.0593 7.72029L94.0248 7.87292L94.1965 7.9133L94.2128 7.73447L94.0593 7.72029ZM92.2112 7.98346L92.2786 8.12457L92.2817 8.12275L92.2112 7.98346ZM91.3242 8.698L91.1971 8.60975L91.1703 8.64959V8.698H91.3242ZM91.3242 15.2034V15.3601H91.478V15.2034H91.3242ZM89.5501 15.2034H89.3963V15.3601H89.5501V15.2034ZM89.5501 6.14717H90.9177V5.83381H89.5501V6.14717ZM90.765 6.01159L90.9684 7.53452L91.2734 7.49231L91.0704 5.96938L90.765 6.01159ZM91.2409 7.61188C91.7032 7.03 92.1349 6.61114 92.5352 6.34766L92.3678 6.08457C91.9303 6.37259 91.4753 6.81862 91.0014 7.41491L91.2409 7.61188ZM92.5332 6.34875C92.9425 6.08725 93.3641 5.95915 93.8004 5.95915V5.64579C93.3009 5.64579 92.8231 5.79342 92.3697 6.08345L92.5332 6.34875ZM93.8004 5.95915C93.9357 5.95915 94.0636 5.97628 94.1852 6.01004L94.2662 5.70769C94.1167 5.66626 93.9616 5.64579 93.8004 5.64579V5.95915ZM94.0721 5.8447L93.9058 7.7061L94.2128 7.73447L94.379 5.87303L94.0721 5.8447ZM94.0938 7.56754C93.9198 7.52673 93.7229 7.50712 93.5048 7.50712V7.82059C93.7055 7.82059 93.8783 7.83858 94.0248 7.87292L94.0938 7.56754ZM93.5048 7.50712C93.0242 7.50712 92.5693 7.61967 92.1407 7.84424L92.2817 8.12275C92.6666 7.92109 93.0735 7.82059 93.5048 7.82059V7.50712ZM92.1442 7.84253C91.7222 8.0507 91.4017 8.30437 91.1971 8.60975L91.4517 8.78625C91.6164 8.54002 91.8873 8.31736 92.2786 8.12446L92.1442 7.84253ZM91.1703 8.698V15.2034H91.478V8.698H91.1703ZM91.3242 15.0467H89.5501V15.3601H91.3242V15.0467ZM89.704 15.2034V5.99047H89.3963V15.2034H89.704ZM103.183 1.10201H103.337V0.945312H103.183V1.10201ZM103.183 15.2034V15.3601H103.337V15.2034H103.183ZM101.705 15.2034L101.553 15.2291L101.574 15.3601H101.705V15.2034ZM101.52 14.0753L101.672 14.0495L101.612 13.6836L101.396 13.9825L101.52 14.0753ZM100.319 15.053L100.256 14.9101L100.319 15.053ZM96.6599 14.7521L96.5743 14.8825L96.6599 14.7521ZM95.163 13.0224L95.025 13.0925L95.0262 13.0944L95.163 13.0224ZM95.1258 8.22794L94.9866 8.1607L94.9859 8.16271L95.1258 8.22794ZM96.5859 6.46053L96.4987 6.33135L96.5859 6.46053ZM100.282 6.10329L100.34 5.95834L100.282 6.10329ZM101.52 7.02458L101.403 7.12597L101.674 7.45142V7.02458H101.52ZM101.52 1.10201V0.945312H101.366V1.10201H101.52ZM100.319 13.5488L100.393 13.6864L100.396 13.6846L100.319 13.5488ZM101.317 12.4583L101.181 12.384L101.317 12.4583ZM100.3 7.70141L100.218 7.83369L100.222 7.83645L100.3 7.70141ZM97.0479 8.2467L96.9277 8.14888L96.9273 8.14919L97.0479 8.2467ZM97.0665 12.9472L96.9459 13.045L97.0665 12.9472ZM103.029 1.10201V15.2034H103.337V1.10201H103.029ZM103.183 15.0467H101.705V15.3601H103.183V15.0467ZM101.857 15.1776L101.672 14.0495L101.368 14.101L101.553 15.2291L101.857 15.1776ZM101.396 13.9825C101.104 14.386 100.725 14.6951 100.256 14.9101L100.382 15.1959C100.898 14.9597 101.32 14.6169 101.644 14.1681L101.396 13.9825ZM100.256 14.9101C99.7834 15.1264 99.2811 15.2347 98.7479 15.2347V15.5481C99.3238 15.5481 99.869 15.4308 100.382 15.1959L100.256 14.9101ZM98.7479 15.2347C98.0143 15.2347 97.3478 15.0306 96.7452 14.6218L96.5743 14.8825C97.2281 15.3261 97.9543 15.5481 98.7479 15.5481V15.2347ZM96.7452 14.6218C96.1399 14.2113 95.6582 13.6555 95.2998 12.9504L95.0262 13.0944C95.4067 13.8434 95.9229 14.4407 96.5743 14.8825L96.7452 14.6218ZM95.3005 12.9523C94.9549 12.2488 94.7809 11.4708 94.7809 10.6158H94.4728C94.4728 11.5155 94.6561 12.342 95.025 13.0925L95.3005 12.9523ZM94.7809 10.6158C94.7809 9.78482 94.9428 9.01125 95.266 8.29306L94.9859 8.16271C94.6437 8.92361 94.4728 9.74199 94.4728 10.6158H94.7809ZM95.2649 8.29511C95.5989 7.57905 96.0682 7.0119 96.6727 6.58971L96.4987 6.33135C95.8465 6.7866 95.3424 7.39766 94.9866 8.1607L95.2649 8.29511ZM96.6727 6.58971C97.2738 6.17011 97.9636 5.95915 98.7479 5.95915V5.64579C97.9058 5.64579 97.1544 5.8735 96.4987 6.33135L96.6727 6.58971ZM98.7479 5.95915C99.2711 5.95915 99.7624 6.05578 100.223 6.24825L100.34 5.95834C99.8403 5.7497 99.3094 5.64579 98.7479 5.64579V5.95915ZM100.223 6.24825C100.68 6.43902 101.073 6.73091 101.403 7.12597L101.638 6.92322C101.277 6.49099 100.844 6.16868 100.34 5.95834L100.223 6.24825ZM101.674 7.02458V1.10201H101.366V7.02458H101.674ZM101.52 1.25867H103.183V0.945312H101.52V1.25867ZM99.044 14.044C99.514 14.044 99.9643 13.924 100.393 13.6864L100.245 13.4113C99.8601 13.6249 99.4602 13.7306 99.044 13.7306V14.044ZM100.396 13.6846C100.831 13.4296 101.182 13.0428 101.452 12.5326L101.181 12.384C100.934 12.8515 100.62 13.1917 100.242 13.4131L100.396 13.6846ZM101.452 12.5326C101.726 12.0146 101.859 11.3729 101.859 10.6158H101.551C101.551 11.3376 101.425 11.9243 101.181 12.384L101.452 12.5326ZM101.859 10.6158C101.859 9.90644 101.726 9.28496 101.453 8.75672L101.18 8.90241C101.425 9.37693 101.551 9.94621 101.551 10.6158H101.859ZM101.453 8.75672C101.183 8.23329 100.826 7.834 100.379 7.56638L100.222 7.83645C100.613 8.07031 100.933 8.42301 101.18 8.90241L101.453 8.75672ZM100.383 7.56925C99.955 7.29197 99.5074 7.14992 99.044 7.14992V7.46328C99.4423 7.46328 99.833 7.58448 100.218 7.83369L100.383 7.56925ZM99.044 7.14992C98.1628 7.14992 97.4517 7.48239 96.9277 8.14888L97.168 8.34457C97.6295 7.75757 98.2496 7.46328 99.044 7.46328V7.14992ZM96.9273 8.14919C96.4205 8.79699 96.1732 9.62347 96.1732 10.6158H96.4813C96.4813 9.67762 96.7142 8.92481 97.1684 8.34422L96.9273 8.14919ZM96.1732 10.6158C96.1732 11.573 96.4282 12.3863 96.9459 13.045L97.1866 12.8493C96.7189 12.2545 96.4813 11.5136 96.4813 10.6158H96.1732ZM96.9459 13.045C97.4695 13.7109 98.174 14.044 99.044 14.044V13.7306C98.2627 13.7306 97.6485 13.4369 97.1866 12.8493L96.9459 13.045ZM105.488 14.6394L105.38 14.7515L105.381 14.7528L105.488 14.6394ZM106.356 10.2209L106.293 10.0783L106.356 10.2209ZM110.145 9.43119L110.147 9.58785L110.299 9.58529V9.43119H110.145ZM109.664 7.75792L109.557 7.87098L109.562 7.87524L109.664 7.75792ZM107.021 7.49464L107.065 7.64513L107.069 7.64374L107.021 7.49464ZM105.783 8.13395L105.632 8.16132L105.674 8.40201L105.871 8.26259L105.783 8.13395ZM105.543 6.76137L105.449 6.63703L105.375 6.69502L105.392 6.78881L105.543 6.76137ZM106.911 6.0657L106.864 5.9164L106.911 6.0657ZM110.459 6.21612L110.38 6.3508L110.382 6.3517L110.459 6.21612ZM111.476 7.58866L111.329 7.6382L111.33 7.64076L111.476 7.58866ZM111.863 13.248L111.71 13.2702L111.713 13.2787L111.863 13.248ZM112.159 13.8308L112.263 13.7154L112.159 13.8308ZM113.009 14.0377L113.16 14.0676L113.196 13.881H113.009V14.0377ZM112.751 15.3914V15.5481H112.877L112.901 15.4214L112.751 15.3914ZM111.401 15.241L111.45 15.0923L111.401 15.241ZM110.717 14.8085L110.598 14.9064L110.601 14.9111L110.717 14.8085ZM110.292 14.0377L110.434 13.9766L110.337 13.7442L110.176 13.9355L110.292 14.0377ZM109.11 13.6993L109.037 13.5607L109.036 13.5617L109.11 13.6993ZM110.145 12.7967L110.269 12.8894L110.299 12.8481V12.7967H110.145ZM110.145 10.5969H110.299V10.4344L110.138 10.4403L110.145 10.5969ZM107.281 11.1422L107.351 11.2811L107.352 11.2805L107.281 11.1422ZM106.8 13.6993L106.693 13.813L106.699 13.8182L106.8 13.6993ZM107.521 15.2347C106.715 15.2347 106.078 14.9948 105.594 14.5258L105.381 14.7528C105.933 15.2865 106.651 15.5481 107.521 15.5481V15.2347ZM105.595 14.5272C105.122 14.0578 104.884 13.4603 104.884 12.7216H104.576C104.576 13.537 104.843 14.218 105.38 14.7515L105.595 14.5272ZM104.884 12.7216C104.884 12.1642 105.013 11.6957 105.265 11.3086C105.517 10.921 105.898 10.6047 106.42 10.3636L106.293 10.0783C105.73 10.3386 105.298 10.6895 105.008 11.1356C104.718 11.5821 104.576 12.1132 104.576 12.7216H104.884ZM106.42 10.3636C107.481 9.87265 108.722 9.6127 110.147 9.58785L110.142 9.27449C108.684 9.29988 107.399 9.56634 106.293 10.0783L106.42 10.3636ZM110.299 9.43119C110.299 8.59568 110.139 7.97628 109.766 7.64045L109.562 7.87524C109.83 8.11593 109.991 8.61219 109.991 9.43119H110.299ZM109.771 7.64482C109.421 7.30302 108.874 7.14992 108.167 7.14992V7.46328C108.841 7.46328 109.292 7.61103 109.557 7.8709L109.771 7.64482ZM108.167 7.14992C107.769 7.14992 107.37 7.21542 106.974 7.34553L107.069 7.64374C107.436 7.5232 107.802 7.46328 108.167 7.46328V7.14992ZM106.978 7.34418C106.576 7.46305 106.148 7.68533 105.695 8.0052L105.871 8.26259C106.305 7.95574 106.703 7.75184 107.065 7.64513L106.978 7.34418ZM105.935 8.10644L105.695 6.73389L105.392 6.78881L105.632 8.16132L105.935 8.10644ZM105.637 6.88571C105.989 6.61056 106.428 6.38615 106.957 6.215L106.864 5.9164C106.309 6.0962 105.836 6.33557 105.449 6.63703L105.637 6.88571ZM106.957 6.215C107.483 6.04458 108.034 5.95915 108.611 5.95915V5.64579C108.005 5.64579 107.421 5.73583 106.864 5.9164L106.957 6.215ZM108.611 5.95915C109.372 5.95915 109.957 6.09461 110.38 6.35077L110.538 6.08144C110.049 5.7861 109.403 5.64579 108.611 5.64579V5.95915ZM110.382 6.3517C110.81 6.60424 111.128 7.02671 111.329 7.6382L111.621 7.53909C111.403 6.87203 111.043 6.37949 110.536 6.0805L110.382 6.3517ZM111.33 7.64076C111.544 8.25596 111.654 9.11314 111.654 10.2209H111.962C111.962 9.09748 111.85 8.1998 111.621 7.53653L111.33 7.64076ZM111.654 10.2209V12.1011H111.962V10.2209H111.654ZM111.654 12.1011C111.654 12.6046 111.672 12.9958 111.71 13.2702L112.016 13.2258C111.981 12.9738 111.962 12.6003 111.962 12.1011H111.654ZM111.713 13.2787C111.766 13.5537 111.877 13.7808 112.055 13.9463L112.263 13.7154C112.145 13.6051 112.059 13.4437 112.014 13.2173L111.713 13.2787ZM112.055 13.9463C112.243 14.1218 112.516 14.1944 112.842 14.1944V13.881C112.553 13.881 112.37 13.8157 112.263 13.7154L112.055 13.9463ZM112.842 14.1944H113.009V13.881H112.842V14.1944ZM112.858 14.0077L112.599 15.3615L112.901 15.4214L113.16 14.0676L112.858 14.0077ZM112.751 15.2347H112.62V15.5481H112.751V15.2347ZM112.62 15.2347C112.111 15.2347 111.723 15.185 111.45 15.0923L111.353 15.3897C111.671 15.4977 112.096 15.5481 112.62 15.5481V15.2347ZM111.45 15.0923C111.173 14.9985 110.971 14.8677 110.834 14.706L110.601 14.9111C110.784 15.1255 111.038 15.2828 111.353 15.3897L111.45 15.0923ZM110.838 14.7107C110.701 14.5378 110.567 14.2949 110.434 13.9766L110.15 14.0988C110.289 14.4323 110.437 14.7033 110.598 14.9064L110.838 14.7107ZM110.176 13.9355C109.439 14.8065 108.556 15.2347 107.521 15.2347V15.5481C108.653 15.5481 109.618 15.0738 110.409 14.1399L110.176 13.9355ZM107.835 14.1944C108.305 14.1944 108.755 14.0743 109.184 13.8368L109.036 13.5617C108.651 13.7754 108.251 13.881 107.835 13.881V14.1944ZM109.181 13.8377C109.621 13.6014 109.984 13.2852 110.269 12.8894L110.021 12.7041C109.764 13.0604 109.437 13.3458 109.037 13.5607L109.181 13.8377ZM110.299 12.7967V10.5969H109.991V12.7967H110.299ZM110.138 10.4403C108.804 10.4906 107.82 10.6728 107.208 11.0038L107.352 11.2805C107.899 10.9848 108.824 10.8035 110.15 10.7535L110.138 10.4403ZM107.209 11.0033C106.904 11.1654 106.668 11.3838 106.51 11.6603C106.351 11.9363 106.275 12.2608 106.275 12.6276H106.584C106.584 12.3049 106.65 12.0372 106.775 11.818C106.9 11.5993 107.09 11.4198 107.351 11.2811L107.209 11.0033ZM106.275 12.6276C106.275 13.1301 106.407 13.5353 106.693 13.8128L106.906 13.5856C106.699 13.3869 106.584 13.0776 106.584 12.6276H106.275ZM106.699 13.8182C106.993 14.074 107.377 14.1944 107.835 14.1944V13.881C107.43 13.881 107.123 13.7757 106.9 13.5802L106.699 13.8182ZM120.89 6.46053L120.802 6.5889L120.803 6.58971L120.89 6.46053ZM122.332 8.22794L122.192 8.29306V8.29402L122.332 8.22794ZM122.276 13.0224L122.139 12.9514L122.138 12.9523L122.276 13.0224ZM120.798 14.7521L120.713 14.6218L120.711 14.6226L120.798 14.7521ZM117.139 15.053L117.075 15.1957L117.078 15.197L117.139 15.053ZM115.938 14.0753L116.063 13.9857L115.848 13.6702L115.786 14.0495L115.938 14.0753ZM115.753 15.2034V15.3601H115.883L115.905 15.2291L115.753 15.2034ZM114.275 15.2034H114.12V15.3601H114.275V15.2034ZM114.275 1.10201V0.945312H114.12V1.10201H114.275ZM115.938 1.10201H116.091V0.945312H115.938V1.10201ZM115.938 7.06217H115.784V7.48068L116.054 7.16508L115.938 7.06217ZM117.175 6.14089L117.114 5.99741L117.112 5.99803L117.175 6.14089ZM120.41 12.9472L120.287 12.852V12.8523L120.41 12.9472ZM120.41 8.2467L120.287 8.34158L120.29 8.34422L120.41 8.2467ZM116.621 8.17147L116.734 8.27848L116.735 8.2772L116.621 8.17147ZM116.603 13.06L116.49 13.1668L116.492 13.1682L116.603 13.06ZM118.746 5.95915C119.531 5.95915 120.214 6.17011 120.802 6.5889L120.978 6.33216C120.335 5.8735 119.589 5.64579 118.746 5.64579V5.95915ZM120.803 6.58971C121.408 7.01155 121.87 7.57808 122.192 8.29306L122.471 8.16271C122.128 7.39867 121.63 6.78691 120.978 6.33135L120.803 6.58971ZM122.192 8.29402C122.514 8.999 122.676 9.76598 122.676 10.5969H122.985C122.985 9.72323 122.814 8.91082 122.471 8.16174L122.192 8.29402ZM122.676 10.5969C122.676 11.4512 122.497 12.2351 122.139 12.9514L122.414 13.0933C122.795 12.3306 122.985 11.4975 122.985 10.5969H122.676ZM122.138 12.9523C121.792 13.6564 121.317 14.2116 120.713 14.6218L120.883 14.8825C121.535 14.4404 122.046 13.8424 122.414 13.0925L122.138 12.9523ZM120.711 14.6226C120.121 15.0309 119.467 15.2347 118.746 15.2347V15.5481C119.529 15.5481 120.243 15.3258 120.885 14.8817L120.711 14.6226ZM118.746 15.2347C118.213 15.2347 117.698 15.1264 117.2 14.909L117.078 15.197C117.614 15.4308 118.171 15.5481 118.746 15.5481V15.2347ZM117.202 14.9102C116.707 14.682 116.33 14.373 116.063 13.9857L115.812 14.1648C116.113 14.6049 116.537 14.9477 117.075 15.1957L117.202 14.9102ZM115.786 14.0495L115.601 15.1776L115.905 15.2291L116.089 14.101L115.786 14.0495ZM115.753 15.0467H114.275V15.3601H115.753V15.0467ZM114.429 15.2034V1.10201H114.12V15.2034H114.429ZM114.275 1.25867H115.938V0.945312H114.275V1.25867ZM115.784 1.10201V7.06217H116.091V1.10201H115.784ZM116.054 7.16508C116.371 6.7947 116.765 6.50076 117.24 6.28379L117.112 5.99803C116.601 6.23228 116.169 6.55254 115.821 6.95927L116.054 7.16508ZM117.237 6.28437C117.723 6.06729 118.226 5.95915 118.746 5.95915V5.64579C118.182 5.64579 117.638 5.76323 117.114 5.99745L117.237 6.28437ZM118.544 14.044C119.368 14.044 120.036 13.7078 120.532 13.042L120.287 12.8523C119.849 13.44 119.272 13.7306 118.544 13.7306V14.044ZM120.532 13.0423C121.036 12.3717 121.285 11.5534 121.285 10.5969H120.976C120.976 11.4955 120.745 12.2441 120.287 12.852L120.532 13.0423ZM121.285 10.5969C121.285 9.61665 121.037 8.79656 120.53 8.14919L120.29 8.34422C120.744 8.92524 120.976 9.67196 120.976 10.5969H121.285ZM120.532 8.15186C120.036 7.48599 119.368 7.14992 118.544 7.14992V7.46328C119.272 7.46328 119.849 7.75385 120.287 8.34146L120.532 8.15186ZM118.544 7.14992C117.736 7.14992 117.054 7.45692 116.508 8.06582L116.735 8.2772C117.223 7.73284 117.823 7.46328 118.544 7.46328V7.14992ZM116.509 8.06454C115.957 8.66688 115.691 9.51902 115.691 10.5969H116C116 9.56902 116.252 8.80424 116.734 8.27837L116.509 8.06454ZM115.691 10.5969C115.691 11.7096 115.948 12.5756 116.49 13.1668L116.715 12.9532C116.247 12.4413 116 11.6653 116 10.5969H115.691ZM116.492 13.1682C117.039 13.7519 117.726 14.044 118.544 14.044V13.7306C117.808 13.7306 117.202 13.4711 116.714 12.9518L116.492 13.1682ZM125.08 14.7521L124.964 14.8558L124.965 14.8578L125.08 14.7521ZM124.525 1.10201V0.945312H124.372V1.10201H124.525ZM126.188 1.10201H126.342V0.945312H126.188V1.10201ZM126.281 13.3984L126.132 13.4364L126.134 13.4435L126.281 13.3984ZM126.688 13.9061L126.626 14.0496L126.688 13.9061ZM127.648 14.0377L127.8 14.0655L127.833 13.881H127.648V14.0377ZM127.408 15.3914V15.5481H127.537L127.56 15.4193L127.408 15.3914ZM126.873 15.2347C126.084 15.2347 125.536 15.0281 125.194 14.6466L124.965 14.8578C125.388 15.3285 126.036 15.5481 126.873 15.5481V15.2347ZM125.195 14.6485C124.853 14.254 124.679 13.7656 124.679 13.1728H124.372C124.372 13.8335 124.567 14.3981 124.964 14.8558L125.195 14.6485ZM124.679 13.1728V1.10201H124.372V13.1728H124.679ZM124.525 1.25867H126.188V0.945312H124.525V1.25867ZM126.034 1.10201V12.195H126.342V1.10201H126.034ZM126.034 12.195C126.034 12.7483 126.065 13.1658 126.132 13.4364L126.43 13.3605C126.374 13.1296 126.342 12.7448 126.342 12.195H126.034ZM126.134 13.4435C126.217 13.7287 126.379 13.9399 126.626 14.0496L126.749 13.7625C126.601 13.6968 126.492 13.5694 126.428 13.3534L126.134 13.4435ZM126.626 14.0496C126.854 14.1511 127.202 14.1944 127.648 14.1944V13.881C127.208 13.881 126.916 13.8364 126.749 13.7625L126.626 14.0496ZM127.496 14.0099L127.256 15.3635L127.56 15.4193L127.8 14.0655L127.496 14.0099ZM127.408 15.2347H126.873V15.5481H127.408V15.2347ZM130.503 14.7521L130.424 14.887L130.427 14.8885L130.503 14.7521ZM128.839 12.9847L128.976 12.912L128.839 12.9847ZM128.783 8.15271L128.647 8.08268L128.645 8.08365L128.783 8.15271ZM130.318 6.44173L130.398 6.57541L130.399 6.57502L130.318 6.44173ZM135.511 6.83656L135.405 6.95028L135.406 6.95117L135.511 6.83656ZM136.527 10.5969V10.7536H136.657L136.679 10.6238L136.527 10.5969ZM129.967 10.5969V10.4402H129.797L129.813 10.6117L129.967 10.5969ZM131.039 13.1352L131.136 13.0138L131.039 13.1352ZM135.973 13.342L136.125 13.3159L136.092 13.1153L135.909 13.1993L135.973 13.342ZM136.194 14.677L136.257 14.82L136.366 14.7704L136.347 14.6509L136.194 14.677ZM134.883 9.43119V9.58785H135.036V9.43119H134.883ZM130.983 7.85191L131.083 7.9714L131.085 7.96958L130.983 7.85191ZM130.114 9.43119L129.965 9.39325L129.918 9.58785H130.114V9.43119ZM133.164 15.2347C132.15 15.2347 131.29 15.0261 130.579 14.6158L130.427 14.8885C131.194 15.3307 132.108 15.5481 133.164 15.5481V15.2347ZM130.581 14.6174C129.878 14.193 129.344 13.625 128.976 12.912L128.703 13.0576C129.098 13.8237 129.673 14.4339 130.424 14.887L130.581 14.6174ZM128.976 12.912C128.606 12.1966 128.42 11.4009 128.42 10.5218H128.113C128.113 11.4475 128.308 12.2938 128.703 13.0576L128.976 12.912ZM128.42 10.5218C128.42 9.67866 128.588 8.91296 128.922 8.22178L128.645 8.08365C128.29 8.82141 128.113 9.63498 128.113 10.5218H128.42ZM128.922 8.22271C129.266 7.52138 129.758 6.97334 130.398 6.57541L130.238 6.30802C129.547 6.73738 129.016 7.33003 128.647 8.08268L128.922 8.22271ZM130.399 6.57502C131.048 6.16624 131.814 5.95915 132.702 5.95915V5.64579C131.765 5.64579 130.942 5.86485 130.237 6.30844L130.399 6.57502ZM132.702 5.95915C133.827 5.95915 134.723 6.29325 135.405 6.95028L135.616 6.72288C134.869 6.00109 133.892 5.64579 132.702 5.64579V5.95915ZM135.406 6.95117C136.095 7.60506 136.447 8.51254 136.447 9.69444H136.755C136.755 8.44464 136.38 7.44693 135.615 6.72195L135.406 6.95117ZM136.447 9.69444C136.447 9.9995 136.424 10.2912 136.376 10.5701L136.679 10.6238C136.73 10.326 136.755 10.0162 136.755 9.69444H136.447ZM136.527 10.4402H129.967V10.7536H136.527V10.4402ZM129.813 10.6117C129.926 11.8233 130.292 12.7178 130.941 13.2565L131.136 13.0138C130.578 12.5498 130.229 11.7522 130.12 10.5822L129.813 10.6117ZM130.941 13.2565C131.578 13.7854 132.391 14.044 133.367 14.044V13.7306C132.445 13.7306 131.706 13.4877 131.136 13.0138L130.941 13.2565ZM133.367 14.044C134.336 14.044 135.226 13.8583 136.036 13.4847L135.909 13.1993C135.142 13.5527 134.296 13.7306 133.367 13.7306V14.044ZM135.822 13.3681L136.042 14.7031L136.347 14.6509L136.125 13.3159L135.822 13.3681ZM136.132 14.5339C135.1 15.0028 134.111 15.2347 133.164 15.2347V15.5481C134.163 15.5481 135.193 15.3037 136.257 14.82L136.132 14.5339ZM135.036 9.43119C135.036 8.73626 134.842 8.17221 134.437 7.75982L134.22 7.9814C134.553 8.32119 134.729 8.79753 134.729 9.43119H135.036ZM134.437 7.75982C134.028 7.3441 133.428 7.14992 132.664 7.14992V7.46328C133.38 7.46328 133.888 7.64513 134.22 7.9814L134.437 7.75982ZM132.664 7.14992C131.925 7.14992 131.324 7.33844 130.881 7.73412L131.085 7.96958C131.455 7.63831 131.975 7.46328 132.664 7.46328V7.14992ZM130.883 7.73242C130.445 8.11058 130.143 8.66994 129.965 9.39325L130.264 9.46925C130.431 8.78858 130.708 8.29511 131.083 7.97129L130.883 7.73242ZM130.114 9.58785H134.883V9.27449H130.114V9.58785Z" fill="white"/>
<path d="M162.147 33.0485C161.499 33.0485 160.917 32.9154 160.398 32.6493C159.88 32.3833 159.472 32.0145 159.177 31.5432C158.89 31.0642 158.746 30.5244 158.746 29.9238C158.746 29.3232 158.89 28.7873 159.177 28.3159C159.472 27.8445 159.88 27.4759 160.398 27.2097C160.917 26.9437 161.499 26.8107 162.147 26.8107C162.8 26.8107 163.387 26.9437 163.906 27.2097C164.424 27.4759 164.827 27.8445 165.115 28.3159C165.41 28.7873 165.558 29.3232 165.558 29.9238C165.558 30.5244 165.41 31.0642 165.115 31.5432C164.827 32.0145 164.424 32.3833 163.906 32.6493C163.387 32.9154 162.8 33.0485 162.147 33.0485ZM162.147 31.8283C162.696 31.8283 163.151 31.6534 163.51 31.3037C163.87 30.954 164.05 30.4941 164.05 29.9238C164.05 29.3537 163.87 28.8937 163.51 28.544C163.151 28.1943 162.696 28.0195 162.147 28.0195C161.596 28.0195 161.141 28.1943 160.782 28.544C160.43 28.8937 160.255 29.3537 160.255 29.9238C160.255 30.4941 160.43 30.954 160.782 31.3037C161.141 31.6534 161.596 31.8283 162.147 31.8283ZM168.412 27.7686C168.844 27.1299 169.602 26.8107 170.687 26.8107V28.1677C170.559 28.1449 170.444 28.1335 170.34 28.1335C169.757 28.1335 169.303 28.2969 168.975 28.6238C168.648 28.9431 168.485 29.4069 168.485 30.015V32.9687H166.989V26.8791H168.412V27.7686ZM178.242 26.8791V32.0449C178.242 34.1888 177.093 35.2607 174.795 35.2607C174.181 35.2607 173.597 35.1848 173.048 35.0326C172.496 34.8882 172.042 34.6754 171.683 34.3941L172.353 33.3221C172.632 33.5426 172.983 33.7174 173.406 33.8467C173.836 33.9835 174.272 34.052 174.712 34.052C175.413 34.052 175.928 33.8999 176.255 33.5958C176.582 33.2917 176.746 32.828 176.746 32.2045V31.8853C176.491 32.1514 176.179 32.3528 175.812 32.4896C175.445 32.6265 175.042 32.6949 174.603 32.6949C173.997 32.6949 173.446 32.5733 172.951 32.33C172.464 32.0791 172.078 31.7294 171.79 31.2809C171.511 30.8323 171.372 30.3191 171.372 29.7413C171.372 29.1636 171.511 28.6542 171.79 28.2133C172.078 27.7647 172.464 27.4189 172.951 27.1755C173.446 26.9323 173.997 26.8107 174.603 26.8107C175.066 26.8107 175.485 26.8828 175.861 27.0272C176.243 27.1718 176.562 27.3922 176.817 27.6887V26.8791H178.242ZM174.831 31.4862C175.397 31.4862 175.861 31.3265 176.219 31.0071C176.587 30.6803 176.769 30.2584 176.769 29.7413C176.769 29.232 176.587 28.8177 176.219 28.4984C175.861 28.1791 175.397 28.0195 174.831 28.0195C174.257 28.0195 173.785 28.1791 173.418 28.4984C173.059 28.8177 172.88 29.232 172.88 29.7413C172.88 30.2584 173.059 30.6803 173.418 31.0071C173.785 31.3265 174.257 31.4862 174.831 31.4862Z" fill="#17093A"/>
<path d="M55.873 19.5095H58.2183V24.6354H64.0815V19.5095H66.4268V32.463H64.0815V26.856H58.2183V32.463H55.873V19.5095ZM73.0743 32.648C72.0117 32.648 71.1014 32.4322 70.3442 32.0004C69.599 31.5563 69.0371 30.9703 68.6585 30.2424C68.2919 29.5021 68.109 28.6818 68.109 27.7812C68.109 26.9177 68.2861 26.1281 68.6403 25.4126C68.9945 24.6971 69.5076 24.1296 70.1795 23.7101C70.8511 23.2783 71.6513 23.0625 72.5794 23.0625C73.4347 23.0625 74.1555 23.2413 74.7418 23.5992C75.3401 23.9569 75.7862 24.438 76.0791 25.0425C76.3845 25.647 76.5372 26.3255 76.5372 27.0781C76.5372 27.4482 76.4883 27.8676 76.3907 28.3363H70.4725C70.5945 29.1507 70.9123 29.7612 71.4254 30.1684C71.9385 30.5631 72.5554 30.7605 73.2758 30.7605C74.2651 30.7605 75.1816 30.5077 76.0245 30.0018L76.1341 31.9449C75.7431 32.1545 75.2851 32.3273 74.76 32.463C74.2469 32.5864 73.685 32.648 73.0743 32.648ZM74.2287 26.782C74.2287 26.3009 74.0942 25.8752 73.8257 25.5051C73.5567 25.135 73.1417 24.95 72.5794 24.95C72.0179 24.95 71.5657 25.1165 71.2239 25.4496C70.8817 25.7826 70.6496 26.2268 70.5275 26.782H74.2287ZM80.0671 32.648C79.3095 32.648 78.6743 32.4013 78.1613 31.9079C77.6606 31.402 77.4102 30.7235 77.4102 29.8723C77.4102 29.0704 77.6974 28.4289 78.2713 27.9478C78.8456 27.4543 79.5234 27.1089 80.305 26.9115C81.087 26.7017 81.838 26.5846 82.5588 26.5599C82.5344 26.017 82.3941 25.6285 82.1376 25.394C81.8931 25.1597 81.4839 25.0425 80.9099 25.0425C80.5069 25.0425 80.1097 25.0979 79.7187 25.209C79.3401 25.3201 78.9007 25.4989 78.3996 25.7457L78.1981 23.8767C79.3095 23.3339 80.4213 23.0625 81.5327 23.0625C82.6077 23.0625 83.4261 23.3585 83.988 23.9507C84.5619 24.5428 84.8491 25.4866 84.8491 26.782V29.2801C84.8491 29.7489 84.8677 30.0882 84.9041 30.2979C84.9529 30.4953 85.0262 30.6248 85.1242 30.6865C85.2339 30.7359 85.411 30.7605 85.6555 30.7605H85.9485L85.747 32.648H84.9223C84.4216 32.648 84.0004 32.5555 83.6582 32.3705C83.3161 32.1731 83.0537 31.9079 82.8704 31.5747C82.577 31.9079 82.174 32.1731 81.661 32.3705C81.1603 32.5555 80.629 32.648 80.0671 32.648ZM81.0196 30.8901C81.2517 30.8901 81.5145 30.8346 81.8078 30.7235C82.1008 30.6002 82.3573 30.4336 82.5771 30.2238V28.1143C81.8443 28.1513 81.1967 28.3117 80.6352 28.5954C80.0733 28.8791 79.7923 29.2739 79.7923 29.7798C79.7923 30.1622 79.89 30.446 80.0853 30.631C80.2806 30.8037 80.5922 30.8901 81.0196 30.8901ZM89.559 32.648C88.7774 32.648 88.1911 32.426 87.8 31.9819C87.409 31.5254 87.2137 30.9395 87.2137 30.2238V18.5842H89.4858V29.2801C89.4858 29.7736 89.5102 30.1251 89.559 30.3349C89.6202 30.5323 89.7179 30.6556 89.852 30.705C89.9988 30.7421 90.243 30.7605 90.5852 30.7605L90.3836 32.648H89.559ZM94.9242 32.648C94.1182 32.648 93.5071 32.4136 93.092 31.9449C92.6766 31.4637 92.4689 30.8901 92.4689 30.2238V25.0979H91.168L91.3695 23.2105H92.4689V21.175L94.7409 20.9344V23.2105H96.7564V25.0979H94.7409V29.2801C94.7409 29.7736 94.7653 30.1191 94.8142 30.3163C94.8754 30.5015 94.9913 30.6248 95.1625 30.6865C95.3454 30.7359 95.6694 30.7605 96.1333 30.7605H96.7564L96.5549 32.648H94.9242ZM102.853 23.0625C104.013 23.0625 104.875 23.4449 105.437 24.2098C106.01 24.9623 106.298 25.9986 106.298 27.3187V32.463H104.026V27.4851C104.026 26.6092 103.885 25.9677 103.605 25.5606C103.324 25.1535 102.878 24.95 102.267 24.95C101.546 24.95 100.954 25.2152 100.49 25.7457V32.463H98.2178V18.5842H100.49V23.8026C100.856 23.5682 101.229 23.3894 101.607 23.266C101.986 23.1303 102.401 23.0625 102.853 23.0625ZM112.791 19.5095H117.353C120.395 19.5095 121.916 20.9035 121.916 23.6917C121.916 25.135 121.531 26.2084 120.761 26.9115C119.991 27.6146 118.875 27.9663 117.408 27.9663H115.136V32.463H112.791V19.5095ZM117.133 25.9862C117.94 25.9862 118.538 25.8012 118.929 25.4311C119.333 25.061 119.533 24.4935 119.533 23.7286C119.533 22.9638 119.333 22.4024 118.929 22.0447C118.526 21.6745 117.909 21.4895 117.079 21.4895H115.136V25.9862H117.133ZM125.613 32.648C124.831 32.648 124.245 32.426 123.855 31.9819C123.464 31.5254 123.268 30.9395 123.268 30.2238V18.5842H125.541V29.2801C125.541 29.7736 125.565 30.1251 125.613 30.3349C125.674 30.5323 125.772 30.6556 125.907 30.705C126.053 30.7421 126.298 30.7605 126.64 30.7605L126.438 32.648H125.613ZM130.061 32.648C129.303 32.648 128.668 32.4013 128.155 31.9079C127.654 31.402 127.403 30.7235 127.403 29.8723C127.403 29.0704 127.691 28.4289 128.265 27.9478C128.839 27.4543 129.517 27.1089 130.299 26.9115C131.08 26.7017 131.831 26.5846 132.552 26.5599C132.528 26.017 132.388 25.6285 132.131 25.394C131.887 25.1597 131.478 25.0425 130.903 25.0425C130.5 25.0425 130.103 25.0979 129.712 25.209C129.333 25.3201 128.894 25.4989 128.393 25.7457L128.192 23.8767C129.303 23.3339 130.415 23.0625 131.526 23.0625C132.601 23.0625 133.419 23.3585 133.981 23.9507C134.556 24.5428 134.843 25.4866 134.843 26.782V29.2801C134.843 29.7489 134.861 30.0882 134.897 30.2979C134.947 30.4953 135.02 30.6248 135.117 30.6865C135.227 30.7359 135.405 30.7605 135.649 30.7605H135.942L135.74 32.648H134.916C134.415 32.648 133.994 32.5555 133.652 32.3705C133.309 32.1731 133.047 31.9079 132.864 31.5747C132.57 31.9079 132.168 32.1731 131.655 32.3705C131.154 32.5555 130.622 32.648 130.061 32.648ZM131.013 30.8901C131.245 30.8901 131.508 30.8346 131.801 30.7235C132.094 30.6002 132.35 30.4336 132.57 30.2238V28.1143C131.837 28.1513 131.19 28.3117 130.629 28.5954C130.067 28.8791 129.786 29.2739 129.786 29.7798C129.786 30.1622 129.883 30.446 130.078 30.631C130.274 30.8037 130.586 30.8901 131.013 30.8901ZM141.824 23.0625C142.961 23.0625 143.822 23.4449 144.408 24.2098C144.994 24.9746 145.288 26.0048 145.288 27.3001V32.463H143.015V27.4851C143.015 26.6216 142.869 25.9862 142.575 25.5792C142.294 25.1597 141.837 24.95 141.202 24.95C140.505 24.95 139.931 25.2152 139.479 25.7457V32.463H137.207V23.2105H139.333L139.369 23.8581C140.139 23.3277 140.957 23.0625 141.824 23.0625ZM149.919 32.648C149.332 32.648 148.795 32.5925 148.306 32.4815C147.83 32.3705 147.335 32.1978 146.822 31.9633L147.023 30.0018C147.537 30.3103 148.013 30.5447 148.452 30.705C148.905 30.853 149.368 30.9271 149.845 30.9271C150.774 30.9271 151.237 30.6186 151.237 30.0018C151.237 29.6687 151.116 29.4158 150.871 29.2432C150.627 29.0581 150.188 28.8422 149.552 28.5954C148.648 28.2624 147.982 27.8861 147.555 27.4666C147.127 27.0348 146.913 26.455 146.913 25.7271C146.913 24.9253 147.219 24.2776 147.83 23.7842C148.44 23.2783 149.265 23.0254 150.303 23.0254C151.341 23.0254 152.288 23.266 153.143 23.7471L152.942 25.7087C152.478 25.3878 152.037 25.1412 151.622 24.9684C151.219 24.7958 150.792 24.7095 150.34 24.7095C149.95 24.7095 149.644 24.7896 149.424 24.95C149.216 25.1103 149.112 25.3386 149.112 25.6346C149.112 25.8691 149.173 26.0603 149.296 26.2084C149.429 26.3563 149.613 26.4921 149.845 26.6154C150.078 26.7265 150.462 26.8868 151 27.0965C151.891 27.442 152.533 27.8244 152.924 28.2438C153.315 28.651 153.51 29.2 153.51 29.8908C153.51 30.7667 153.198 31.4452 152.576 31.9263C151.952 32.4075 151.067 32.648 149.919 32.648ZM154.844 29.9463H157.227V32.463H154.844V29.9463Z" fill="#17093A"/>
<path d="M27.9094 0H13.9546V14.3096H27.9094V0Z" fill="#17093A"/>
<path d="M27.9094 28.6194H13.9546V42.929H27.9094V28.6194Z" fill="#17093A"/>
<path d="M42.0004 14.4395H28.0454V28.7491H42.0004V14.4395Z" fill="#F37111"/>
<path d="M13.9548 14.3094H0V28.6191H13.9548V14.3094Z" fill="#F37111"/>
</svg>
